<svg width="27" height="27" viewBox="0 0 27 27" fill="none" xmlns="http://www.w3.org/2000/svg">
<path fill-rule="evenodd" clip-rule="evenodd" d="M25.8353 13.8683C25.8353 12.9337 25.7514 12.035 25.5956 11.1722H13.1813V16.2709H20.2752C19.9696 17.9186 19.0409 19.3146 17.6449 20.2493V23.5566H21.9049C24.3973 21.2618 25.8353 17.8826 25.8353 13.8683Z" fill="black"/>
<path fill-rule="evenodd" clip-rule="evenodd" d="M13.181 26.7499C16.7399 26.7499 19.7237 25.5696 21.9046 23.5564L17.6446 20.2491C16.4643 21.04 14.9545 21.5073 13.181 21.5073C9.74786 21.5073 6.84199 19.1886 5.80547 16.0731H1.40173V19.4882C3.57065 23.7961 8.02831 26.7499 13.181 26.7499Z" fill="black"/>
<path fill-rule="evenodd" clip-rule="evenodd" d="M5.80574 16.0732C5.54212 15.2823 5.39233 14.4375 5.39233 13.5687C5.39233 12.7 5.54212 11.8552 5.80574 11.0643V7.64917H1.40201C0.509275 9.42864 0 11.4418 0 13.5687C0 15.6957 0.509275 17.7089 1.40201 19.4883L5.80574 16.0732Z" fill="black"/>
<path fill-rule="evenodd" clip-rule="evenodd" d="M13.181 5.62999C15.1162 5.62999 16.8538 6.29505 18.2198 7.60119L22.0004 3.82057C19.7177 1.69359 16.7339 0.387451 13.181 0.387451C8.02831 0.387451 3.57065 3.34125 1.40173 7.64912L5.80547 11.0643C6.842 7.9487 9.74786 5.62999 13.181 5.62999Z" fill="black"/>
</svg>
