<svg width="22" height="27" viewBox="0 0 22 27" fill="none" xmlns="http://www.w3.org/2000/svg">
<path d="M21.5389 21.0412C21.1439 21.9845 20.6764 22.8528 20.1347 23.6511C19.3963 24.7394 18.7917 25.4927 18.3258 25.9111C17.6035 26.5977 16.8297 26.9494 16.001 26.9694C15.4061 26.9694 14.6887 26.7944 13.8536 26.4394C13.0157 26.086 12.2457 25.9111 11.5417 25.9111C10.8033 25.9111 10.0114 26.086 9.16436 26.4394C8.31602 26.7944 7.63261 26.9794 7.1101 26.9977C6.31545 27.0327 5.52338 26.671 4.73276 25.9111C4.22814 25.4561 3.59697 24.6761 2.84085 23.5711C2.02959 22.3912 1.36263 21.0229 0.840114 19.4629C0.280522 17.778 0 16.1463 0 14.5667C0 12.7573 0.378221 11.1967 1.13579 9.88887C1.73117 8.8384 2.52325 8.00976 3.51458 7.40144C4.50592 6.79313 5.57706 6.48314 6.73059 6.46331C7.36176 6.46331 8.18946 6.66513 9.21804 7.06179C10.2437 7.45978 10.9023 7.6616 11.191 7.6616C11.4069 7.6616 12.1385 7.42561 13.3788 6.95513C14.5517 6.51881 15.5416 6.33814 16.3525 6.40931C18.5499 6.59264 20.2008 7.48811 21.2987 9.10139C19.3334 10.3324 18.3613 12.0565 18.3806 14.2682C18.3984 15.991 19.0029 17.4246 20.1911 18.5629C20.7296 19.0913 21.3309 19.4996 22 19.7896C21.8549 20.2246 21.7017 20.6412 21.5389 21.0412ZM16.4992 0.540154C16.4992 1.89046 16.022 3.15124 15.0708 4.3182C13.9229 5.7055 12.5345 6.50714 11.0289 6.38064C11.0097 6.21865 10.9985 6.04815 10.9985 5.86899C10.9985 4.5727 11.5444 3.18541 12.5139 2.05111C12.9978 1.47679 13.6134 0.999256 14.3598 0.618317C15.1046 0.243062 15.8092 0.0355376 16.4718 0C16.4911 0.180515 16.4992 0.361042 16.4992 0.540136V0.540154Z" fill="black"/>
</svg>
