<svg width="27" height="27" viewBox="0 0 27 27" fill="none" xmlns="http://www.w3.org/2000/svg">
<path fill-rule="evenodd" clip-rule="evenodd" d="M6.56757 13.5C6.56757 9.6713 9.6713 6.56757 13.5 6.56757C17.3287 6.56757 20.4324 9.6713 20.4324 13.5C20.4324 17.3287 17.3287 20.4324 13.5 20.4324C9.6713 20.4324 6.56757 17.3287 6.56757 13.5ZM13.5 18C11.0147 18 9 15.9853 9 13.5C9 11.0147 11.0147 9 13.5 9C15.9853 9 18 11.0147 18 13.5C18 15.9853 15.9853 18 13.5 18Z" fill="black"/>
<path d="M20.7063 7.91366C21.601 7.91366 22.3263 7.18839 22.3263 6.29368C22.3263 5.39897 21.601 4.67365 20.7063 4.67365C19.8117 4.67365 19.0863 5.39897 19.0863 6.29368C19.0863 7.18839 19.8117 7.91366 20.7063 7.91366Z" fill="black"/>
<path fill-rule="evenodd" clip-rule="evenodd" d="M13.5 0C9.83362 0 9.37389 0.0155406 7.93397 0.0812399C6.49705 0.146778 5.51569 0.375011 4.65699 0.708759C3.76924 1.05371 3.01638 1.51532 2.26582 2.26582C1.51532 3.01638 1.05371 3.76924 0.708759 4.65699C0.375011 5.51569 0.146778 6.49705 0.0812399 7.93397C0.0155406 9.37389 0 9.83362 0 13.5C0 17.1664 0.0155406 17.6261 0.0812399 19.066C0.146778 20.503 0.375011 21.4843 0.708759 22.343C1.05371 23.2308 1.51532 23.9836 2.26582 24.7342C3.01638 25.4847 3.76924 25.9463 4.65699 26.2913C5.51569 26.625 6.49705 26.8532 7.93397 26.9188C9.37389 26.9845 9.83362 27 13.5 27C17.1664 27 17.6261 26.9845 19.066 26.9188C20.503 26.8532 21.4843 26.625 22.343 26.2913C23.2308 25.9463 23.9836 25.4847 24.7342 24.7342C25.4847 23.9836 25.9463 23.2308 26.2913 22.343C26.625 21.4843 26.8532 20.503 26.9188 19.066C26.9845 17.6261 27 17.1664 27 13.5C27 9.83362 26.9845 9.37389 26.9188 7.93397C26.8532 6.49705 26.625 5.51569 26.2913 4.65699C25.9463 3.76924 25.4847 3.01638 24.7342 2.26582C23.9836 1.51532 23.2308 1.05371 22.343 0.708759C21.4843 0.375011 20.503 0.146778 19.066 0.0812399C17.6261 0.0155406 17.1664 0 13.5 0ZM13.5 2.43243C17.1046 2.43243 17.5316 2.4462 18.9552 2.51115C20.2714 2.57117 20.9862 2.79109 21.4619 2.97597C22.0921 3.22087 22.5418 3.51341 23.0142 3.98585C23.4866 4.45823 23.7791 4.90794 24.024 5.53809C24.2089 6.01379 24.4288 6.7286 24.4889 8.04484C24.5538 9.46836 24.5676 9.89535 24.5676 13.5C24.5676 17.1046 24.5538 17.5316 24.4889 18.9552C24.4288 20.2714 24.2089 20.9862 24.024 21.4619C23.7791 22.0921 23.4866 22.5418 23.0142 23.0142C22.5418 23.4866 22.0921 23.7791 21.4619 24.024C20.9862 24.2089 20.2714 24.4288 18.9552 24.4889C17.5319 24.5538 17.1049 24.5676 13.5 24.5676C9.89509 24.5676 9.4682 24.5538 8.04484 24.4889C6.72861 24.4288 6.01379 24.2089 5.53809 24.024C4.90794 23.7791 4.45823 23.4866 3.98585 23.0142C3.51347 22.5418 3.22088 22.0921 2.97598 21.4619C2.7911 20.9862 2.57117 20.2714 2.51115 18.9552C2.4462 17.5316 2.43243 17.1046 2.43243 13.5C2.43243 9.89535 2.4462 9.46836 2.51115 8.04484C2.57117 6.7286 2.7911 6.01379 2.97598 5.53809C3.22088 4.90794 3.51341 4.45823 3.98585 3.98585C4.45823 3.51341 4.90794 3.22087 5.53809 2.97597C6.01379 2.79109 6.72861 2.57117 8.04484 2.51115C9.46836 2.4462 9.89536 2.43243 13.5 2.43243Z" fill="black"/>
</svg>
